<svg width="25" height="24" viewBox="0 0 25 24" fill="none" xmlns="http://www.w3.org/2000/svg">
<path d="M16.625 5.46875C16.4375 5.34375 16.1875 5.40625 16.0938 5.59375L15.7188 6.25C15.625 6.40625 15.6875 6.625 15.8438 6.75C17.5938 7.84375 18.75 9.8125 18.75 12C18.75 15.4688 15.9375 18.25 12.5 18.25C9.03125 18.25 6.25 15.4688 6.25 12C6.25 9.8125 7.375 7.84375 9.125 6.75C9.28125 6.625 9.34375 6.40625 9.25 6.25L8.875 5.59375C8.78125 5.40625 8.53125 5.34375 8.34375 5.46875C6.1875 6.84375 4.71875 9.25 4.75 12.0312C4.75 16.2812 8.25 19.7812 12.5 19.75C16.7812 19.75 20.25 16.2812 20.25 12C20.25 9.25 18.7812 6.84375 16.625 5.46875ZM13.25 12.625V4.375C13.25 4.1875 13.0625 4 12.875 4H12.125C11.9062 4 11.75 4.1875 11.75 4.375V12.625C11.75 12.8438 11.9062 13 12.125 13H12.875C13.0625 13 13.25 12.8438 13.25 12.625Z" fill="#CB3A31"/>
</svg>
