<svg width="50" height="50" viewBox="0 0 50 50" fill="none" xmlns="http://www.w3.org/2000/svg">
<g clip-path="url(#clip0_2523_1848)">
<rect width="50" height="50" rx="25" fill="#F5F5F5"/>
<path d="M42.2892 42.2547C37.6155 37.9419 31.5099 35.5129 25.1508 35.4366C18.7916 35.3602 12.6295 37.6418 7.85354 41.8412L5.69238 39.3891C11.0742 34.6553 18.0185 32.0825 25.1854 32.1671C32.3523 32.2516 39.234 34.9875 44.5027 39.8468L42.2892 42.2547Z" fill="#3E7BFA"/>
<path d="M24.8396 14.3119C26.4433 14.3119 28.0109 14.7875 29.3443 15.6785C30.6777 16.5694 31.717 17.8358 32.3307 19.3174C32.9444 20.7989 33.105 22.4292 32.7921 24.0021C32.4792 25.575 31.707 27.0197 30.5731 28.1537C29.4391 29.2876 27.9943 30.0599 26.4215 30.3727C24.8486 30.6856 23.2184 30.525 21.7368 29.9113C20.2552 29.2976 18.9888 28.2584 18.0978 26.925C17.2069 25.5916 16.7314 24.0239 16.7314 22.4202C16.734 20.2706 17.589 18.2097 19.1091 16.6897C20.6291 15.1697 22.69 14.3145 24.8396 14.3119ZM24.8396 11.0425C22.5893 11.0425 20.3896 11.7098 18.5185 12.96C16.6474 14.2102 15.1891 15.9871 14.328 18.0662C13.4668 20.1452 13.2415 22.4329 13.6805 24.6399C14.1196 26.847 15.2032 28.8743 16.7944 30.4655C18.3856 32.0567 20.4129 33.1404 22.62 33.5794C24.8271 34.0184 27.1147 33.7931 29.1938 32.9319C31.2728 32.0708 33.0497 30.6125 34.2999 28.7414C35.5501 26.8703 36.2174 24.6706 36.2174 22.4202C36.2174 19.4027 35.0186 16.5087 32.8849 14.375C30.7511 12.2412 27.8572 11.0425 24.8396 11.0425Z" fill="#3E7BFA"/>
<path d="M25 3.27435C29.2979 3.27435 33.4993 4.54884 37.0728 6.93662C40.6464 9.3244 43.4317 12.7182 45.0764 16.689C46.7211 20.6597 47.1514 25.029 46.3129 29.2443C45.4745 33.4596 43.4048 37.3316 40.3658 40.3707C37.3267 43.4098 33.4547 45.4794 29.2394 46.3179C25.0241 47.1563 20.6548 46.726 16.6841 45.0813C12.7133 43.4366 9.3195 40.6513 6.93172 37.0777C4.54394 33.5042 3.26943 29.3028 3.26943 25.0049C3.27592 19.2436 5.56749 13.7201 9.64135 9.64627C13.7152 5.57241 19.2387 3.28084 25 3.27435ZM25 0.00488281C20.0555 0.00488281 15.222 1.47113 11.1108 4.21816C6.99953 6.9652 3.79519 10.8697 1.903 15.4378C0.0108074 20.006 -0.484243 25.0326 0.480388 29.8821C1.44502 34.7317 3.82604 39.1863 7.32235 42.6826C10.8187 46.1789 15.2732 48.5599 20.1227 49.5245C24.9723 50.4892 29.9989 49.9941 34.5671 48.1019C39.1352 46.2097 43.0397 43.0054 45.7867 38.8941C48.5337 34.7829 50 29.9494 50 25.0049C50 18.3745 47.3661 12.0156 42.6777 7.32722C37.9893 2.63881 31.6304 0.00488281 25 0.00488281Z" fill="#3E7BFA"/>
</g>
<defs>
<clipPath id="clip0_2523_1848">
<rect width="50" height="50" rx="25" fill="white"/>
</clipPath>
</defs>
</svg>
