<svg width="24" height="24" viewBox="0 0 24 24" fill="none" xmlns="http://www.w3.org/2000/svg">
<path d="M9.09375 11.2188C8.9375 11.0625 8.6875 11.0625 8.5625 11.2188L7.84375 11.9062C7.6875 12.0625 7.6875 12.3125 7.84375 12.4375L10.6875 15.3125C10.8125 15.4688 11.0625 15.4688 11.2188 15.3125L16.5938 9.96875C16.75 9.8125 16.75 9.5625 16.5938 9.4375L15.9062 8.71875C15.75 8.5625 15.5312 8.5625 15.375 8.71875L10.9688 13.0938L9.09375 11.2188ZM18.5625 6.625L12.5625 4.125C12.375 4.0625 12.1875 4.03125 12 4.03125C11.7812 4.03125 11.5938 4.0625 11.4062 4.125L5.40625 6.625C4.84375 6.875 4.5 7.40625 4.5 8C4.5 14.2188 8.0625 18.5 11.4062 19.9062C11.7812 20.0625 12.1875 20.0625 12.5625 19.9062C15.25 18.7812 19.5 14.9375 19.5 8C19.5 7.40625 19.125 6.875 18.5625 6.625ZM12 18.5C8.9375 17.25 6 13.3125 6 8L12 5.5L18 8C18 13.4375 14.9062 17.2812 12 18.5Z" fill="white"/>
</svg>
