<svg width="110" height="110" viewBox="0 0 110 110" fill="none" xmlns="http://www.w3.org/2000/svg">
<rect width="110" height="110" rx="10" fill="white"/>
<path d="M22.6406 67H17.875V44.1562H30.9688V48.125H22.6406V54.0156H30.3906V57.9688H22.6406V67ZM39.0781 67H34.3125V42.6875H39.0781V67ZM40.8438 49.5312H46.0625L49.3594 59.3594C49.4635 59.6719 49.5521 59.9896 49.625 60.3125C49.6979 60.6354 49.7604 60.9688 49.8125 61.3125C49.8646 61.6562 49.9062 62.0156 49.9375 62.3906H50.0312C50.0938 61.8281 50.1771 61.3021 50.2812 60.8125C50.3958 60.3229 50.5365 59.8385 50.7031 59.3594L53.9375 49.5312H59.0469L51.6562 69.2344C51.2083 70.4427 50.625 71.4479 49.9062 72.25C49.1875 73.0625 48.3594 73.6719 47.4219 74.0781C46.4948 74.4844 45.474 74.6875 44.3594 74.6875C43.8177 74.6875 43.349 74.6562 42.9531 74.5938C42.5573 74.5417 42.2188 74.4844 41.9375 74.4219V70.6406C42.1562 70.6927 42.4323 70.7396 42.7656 70.7812C43.099 70.8229 43.4479 70.8438 43.8125 70.8438C44.4792 70.8438 45.0521 70.7031 45.5312 70.4219C46.0104 70.1406 46.4115 69.7604 46.7344 69.2812C47.0573 68.8125 47.3125 68.2969 47.5 67.7344L47.7812 66.875L40.8438 49.5312ZM60.1406 64.7656C60.1406 63.7865 60.4062 63.099 60.9375 62.7031C61.4792 62.3073 62.1302 62.1094 62.8906 62.1094C63.6302 62.1094 64.2656 62.3073 64.7969 62.7031C65.3385 63.099 65.6094 63.7865 65.6094 64.7656C65.6094 65.7031 65.3385 66.3802 64.7969 66.7969C64.2656 67.2135 63.6302 67.4219 62.8906 67.4219C62.1302 67.4219 61.4792 67.2135 60.9375 66.7969C60.4062 66.3802 60.1406 65.7031 60.1406 64.7656ZM73.9531 49.5312V67H69.1875V49.5312H73.9531ZM71.5781 42.6875C72.2865 42.6875 72.8958 42.8542 73.4062 43.1875C73.9167 43.5104 74.1719 44.1198 74.1719 45.0156C74.1719 45.901 73.9167 46.5156 73.4062 46.8594C72.8958 47.1927 72.2865 47.3594 71.5781 47.3594C70.8594 47.3594 70.2448 47.1927 69.7344 46.8594C69.2344 46.5156 68.9844 45.901 68.9844 45.0156C68.9844 44.1198 69.2344 43.5104 69.7344 43.1875C70.2448 42.8542 70.8594 42.6875 71.5781 42.6875ZM83.75 67.3125C81.8021 67.3125 80.2135 66.5521 78.9844 65.0312C77.7656 63.5 77.1562 61.2552 77.1562 58.2969C77.1562 55.3073 77.776 53.0469 79.0156 51.5156C80.2552 49.974 81.875 49.2031 83.875 49.2031C84.7083 49.2031 85.4427 49.3177 86.0781 49.5469C86.7135 49.776 87.2604 50.0833 87.7188 50.4688C88.1875 50.8542 88.5833 51.2865 88.9062 51.7656H89.0625C89 51.4323 88.9219 50.9427 88.8281 50.2969C88.7448 49.6406 88.7031 48.9688 88.7031 48.2812V42.6875H93.4844V67H89.8281L88.9062 64.7344H88.7031C88.401 65.2135 88.0208 65.651 87.5625 66.0469C87.1146 66.4323 86.5781 66.7396 85.9531 66.9688C85.3281 67.1979 84.5938 67.3125 83.75 67.3125ZM85.4219 63.5156C86.724 63.5156 87.6406 63.1302 88.1719 62.3594C88.7135 61.5781 89 60.4062 89.0312 58.8438V58.3281C89.0312 56.6302 88.7708 55.3333 88.25 54.4375C87.7292 53.5312 86.7604 53.0781 85.3438 53.0781C84.2917 53.0781 83.4688 53.5312 82.875 54.4375C82.2812 55.3438 81.9844 56.651 81.9844 58.3594C81.9844 60.0677 82.2812 61.3542 82.875 62.2188C83.4792 63.0833 84.3281 63.5156 85.4219 63.5156Z" fill="#3E7BFA"/>
<rect x="68" y="41" width="8" height="8" fill="white"/>
<path d="M67.3137 40.4505L68.7909 41.8591L74.8598 40.9397L70.509 43.3912L74.1609 46.9777C74.2238 47.0377 74.3003 47.0817 74.3838 47.106C74.4673 47.1302 74.5555 47.134 74.6408 47.117C74.7261 47.0999 74.806 47.0626 74.8738 47.0082C74.9417 46.9538 74.9954 46.8838 75.0305 46.8042L78.3184 39.3545C78.3562 39.2682 78.3709 39.1735 78.3611 39.0798C78.3512 38.986 78.3171 38.8965 78.2621 38.82C78.2072 38.7434 78.1332 38.6825 78.0476 38.6432C77.9619 38.6039 77.8675 38.5876 77.7736 38.5959L67.6385 39.5185C67.535 39.5282 67.4365 39.5675 67.3547 39.6316C67.2728 39.6958 67.2112 39.782 67.1769 39.8802C67.1427 39.9784 67.1374 40.0843 67.1617 40.1854C67.1859 40.2865 67.2387 40.3785 67.3137 40.4505ZM68.3794 46.0747L71.2395 45.7806L69.2212 43.7618L68.3794 46.0747Z" fill="#3E7BFA"/>
</svg>
